# This file uses centimeters as units for non-parametric coordinates.

mtllib cond_low.mtl
g default
v -0.618921 -0.046440 -2.782604
v 0.618921 -0.046440 -2.782604
v -0.618921 2.609757 -2.782604
v 0.618921 2.609757 -2.782604
v -0.618921 2.609757 -6.777201
v 0.618921 2.609757 -6.777201
v -0.618921 -0.046440 -6.777201
v 0.618921 -0.046440 -6.777201
v -0.388749 2.581573 -6.218939
v -0.420462 2.581573 -6.218939
v -0.436319 2.600432 -6.198972
v -0.420462 2.619290 -6.179006
v -0.388749 2.619290 -6.179006
v -0.372892 2.600432 -6.198972
v -0.506638 2.742905 -6.345704
v -0.538351 2.742905 -6.345704
v -0.554207 2.761764 -6.325737
v -0.538351 2.780622 -6.305769
v -0.506638 2.780622 -6.305769
v -0.490781 2.761764 -6.325737
v -0.559706 2.815983 -6.506692
v -0.591419 2.815983 -6.506692
v -0.607275 2.842299 -6.498832
v -0.591419 2.868614 -6.490970
v -0.559706 2.868614 -6.490970
v -0.543849 2.842299 -6.498832
v -0.582125 2.767422 -6.659698
v -0.613838 2.767422 -6.659698
v -0.629694 2.792387 -6.671148
v -0.613838 2.817353 -6.682594
v -0.582125 2.817353 -6.682594
v -0.566268 2.792387 -6.671148
v -0.537269 2.691236 -6.793240
v -0.568982 2.691236 -6.793240
v -0.584839 2.704447 -6.817317
v -0.568982 2.717659 -6.841395
v -0.537269 2.717659 -6.841395
v -0.521412 2.704447 -6.817317
v -0.561320 2.445978 -6.837395
v -0.593033 2.445978 -6.837395
v -0.608890 2.445379 -6.864852
v -0.593033 2.444783 -6.892311
v -0.561320 2.444783 -6.892311
v -0.545464 2.445379 -6.864852
v -0.590160 2.075194 -6.806494
v -0.621873 2.075194 -6.806494
v -0.637729 2.074596 -6.833953
v -0.621873 2.073999 -6.861412
v -0.590160 2.073999 -6.861412
v -0.574303 2.074596 -6.833953
v -0.590169 1.784747 -6.840483
v -0.621882 1.784747 -6.840483
v -0.637739 1.784149 -6.867943
v -0.621882 1.783553 -6.895400
v -0.590169 1.783553 -6.895400
v -0.574313 1.784149 -6.867943
v -0.507808 1.515930 -6.877561
v -0.539521 1.515930 -6.877561
v -0.555378 1.515331 -6.905021
v -0.539521 1.514735 -6.932477
v -0.507808 1.514735 -6.932477
v -0.491952 1.515331 -6.905021
v -0.446815 1.256381 -6.889921
v -0.478528 1.256381 -6.889921
v -0.494384 1.255783 -6.917379
v -0.478528 1.255187 -6.944838
v -0.446815 1.255187 -6.944838
v -0.430958 1.255783 -6.917379
v -0.430400 0.953575 -6.908459
v -0.462113 0.953575 -6.908459
v -0.477969 0.952977 -6.935919
v -0.462113 0.952381 -6.963377
v -0.430400 0.952381 -6.963377
v -0.414543 0.952977 -6.935919
v -0.470548 0.700207 -6.852841
v -0.502261 0.700207 -6.852841
v -0.518117 0.699609 -6.880301
v -0.502261 0.699013 -6.907759
v -0.470548 0.699013 -6.907759
v -0.454691 0.699609 -6.880301
v -0.494031 0.519195 -6.748673
v -0.525744 0.519195 -6.748673
v -0.541600 0.504947 -6.772156
v -0.525744 0.490702 -6.795636
v -0.494031 0.490702 -6.795636
v -0.478174 0.504947 -6.772156
vt 0.792818 0.527891
vt 0.819569 0.024414
vt 0.024414 0.359199
vt 0.792818 0.024414
vt 0.819569 0.024414
vt 0.527891 0.359199
vt 0.819569 0.527891
vt 0.527891 0.381245
vt 0.527891 0.024414
vt 0.024414 0.381245
vt 0.975586 0.527891
vt 0.024414 0.359199
vt 0.024414 0.024414
vt 0.527891 0.024414
vt 0.975586 0.024414
vt 0.527891 0.359199
vt 0.024414 0.612205
vt 0.819569 0.527891
vt 0.554517 0.527891
vt 0.024414 0.024414
vt 0.975586 0.527891
vt 0.527891 0.612205
vt 0.554517 0.024414
vt 0.975586 0.024414
vt 0.026268 0.642426
vt 0.030888 0.635004
vt 0.096715 0.636149
vt 0.092913 0.644023
vt 0.029533 0.684418
vt 0.032343 0.676130
vt 0.095982 0.676927
vt 0.095240 0.685211
vt 0.030959 0.667233
vt 0.093483 0.668687
vt 0.026927 0.659401
vt 0.090374 0.660717
vt 0.024414 0.651020
vt 0.089889 0.652328
vt 0.149425 0.635895
vt 0.147630 0.644414
vt 0.147934 0.676778
vt 0.148372 0.685120
vt 0.145812 0.668819
vt 0.144408 0.660422
vt 0.145010 0.652291
vt 0.194369 0.634250
vt 0.194870 0.642960
vt 0.194172 0.678408
vt 0.194331 0.686741
vt 0.194580 0.669628
vt 0.194995 0.660642
vt 0.195163 0.651880
vt 0.239851 0.636889
vt 0.240336 0.645435
vt 0.240259 0.677306
vt 0.240345 0.685838
vt 0.240793 0.669546
vt 0.241138 0.661226
vt 0.241090 0.653054
vt 0.311497 0.634853
vt 0.310905 0.643587
vt 0.312548 0.678221
vt 0.311641 0.686828
vt 0.312699 0.669596
vt 0.312020 0.660884
vt 0.311121 0.652248
vt 0.414474 0.634291
vt 0.414159 0.643017
vt 0.415017 0.678235
vt 0.414619 0.686995
vt 0.415062 0.669421
vt 0.414706 0.660542
vt 0.414253 0.651749
vt 0.493475 0.634461
vt 0.494712 0.643088
vt 0.494000 0.677615
vt 0.493610 0.686335
vt 0.495656 0.669098
vt 0.496894 0.660529
vt 0.496421 0.651714
vt 0.570824 0.634879
vt 0.573110 0.643285
vt 0.570742 0.677268
vt 0.571070 0.686009
vt 0.572652 0.668784
vt 0.574861 0.660411
vt 0.575112 0.651737
vt 0.645324 0.634161
vt 0.646540 0.642778
vt 0.645325 0.677655
vt 0.645362 0.686429
vt 0.646481 0.668933
vt 0.647656 0.660231
vt 0.647691 0.651441
vt 0.730904 0.634228
vt 0.730473 0.642931
vt 0.730568 0.677422
vt 0.730786 0.686173
vt 0.730012 0.668820
vt 0.729666 0.660177
vt 0.729861 0.651511
vt 0.805363 0.634739
vt 0.804282 0.643434
vt 0.803511 0.676779
vt 0.805360 0.685216
vt 0.800555 0.668701
vt 0.799470 0.660084
vt 0.801287 0.651619
vt 0.863573 0.633403
vt 0.862839 0.642137
vt 0.864617 0.677461
vt 0.863724 0.686196
vt 0.864606 0.668593
vt 0.863730 0.659699
vt 0.862795 0.650894
vn 0.000000 0.000000 1.000000
vn 0.000000 0.000000 1.000000
vn 0.000000 0.000000 1.000000
vn 0.000000 0.000000 1.000000
vn 0.000000 1.000000 0.000000
vn 0.000000 1.000000 0.000000
vn 0.000000 1.000000 0.000000
vn 0.000000 1.000000 0.000000
vn 0.000000 0.000000 -1.000000
vn 0.000000 0.000000 -1.000000
vn 0.000000 0.000000 -1.000000
vn 0.000000 0.000000 -1.000000
vn 0.000000 -1.000000 0.000000
vn 0.000000 -1.000000 0.000000
vn 0.000000 -1.000000 0.000000
vn 0.000000 -1.000000 0.000000
vn 1.000000 0.000000 0.000000
vn 1.000000 0.000000 0.000000
vn 1.000000 0.000000 0.000000
vn 1.000000 0.000000 0.000000
vn -1.000000 0.000000 0.000000
vn -1.000000 0.000000 0.000000
vn -1.000000 0.000000 0.000000
vn -1.000000 0.000000 0.000000
vn 0.000000 -0.617834 -0.786309
vn 0.000000 -0.617834 -0.786309
vn 0.000000 -0.617834 -0.786309
vn 0.000000 -0.617834 -0.786309
vn -0.275642 -0.798193 -0.535640
vn -0.791988 -0.443858 0.419220
vn -0.931226 -0.138016 0.337297
vn -0.563396 -0.798194 -0.213243
vn -0.791988 -0.443858 0.419220
vn -0.275636 0.489237 0.827449
vn -0.510821 0.490233 0.706211
vn -0.931226 -0.138016 0.337297
vn -0.275636 0.489237 0.827449
vn 0.661940 0.747969 0.048771
vn 0.365532 0.810622 0.457470
vn -0.510821 0.490233 0.706211
vn 0.661940 0.747969 0.048771
vn 0.791988 0.443856 -0.419221
vn 0.869238 0.407865 -0.279413
vn 0.365532 0.810622 0.457470
vn 0.791988 0.443856 -0.419221
vn 0.661944 -0.006014 -0.749529
vn 0.479080 -0.557567 -0.677939
vn 0.869238 0.407865 -0.279413
vn 0.479080 -0.557567 -0.677939
vn -0.563396 -0.798194 -0.213243
vn -0.568490 -0.820217 0.063735
vn 0.511780 -0.843860 -0.161189
vn -0.563396 -0.798194 -0.213243
vn -0.931226 -0.138016 0.337297
vn -0.995549 0.070264 0.062811
vn -0.568490 -0.820217 0.063735
vn -0.931226 -0.138016 0.337297
vn -0.510821 0.490233 0.706211
vn -0.507895 0.833239 0.218529
vn -0.995549 0.070264 0.062811
vn -0.510821 0.490233 0.706211
vn 0.365532 0.810622 0.457470
vn 0.418777 0.899240 0.126466
vn -0.507895 0.833239 0.218529
vn 0.365532 0.810622 0.457470
vn 0.869238 0.407865 -0.279413
vn 0.962990 0.158198 -0.218227
vn 0.418777 0.899240 0.126466
vn 0.869238 0.407865 -0.279413
vn 0.479080 -0.557567 -0.677939
vn 0.511780 -0.843860 -0.161189
vn 0.962990 0.158198 -0.218227
vn 0.511780 -0.843860 -0.161189
vn -0.568490 -0.820217 0.063735
vn -0.529181 -0.797991 0.288407
vn 0.437017 -0.799902 0.411306
vn -0.568490 -0.820217 0.063735
vn -0.995549 0.070264 0.062811
vn -0.996778 -0.053698 -0.059580
vn -0.529181 -0.797991 0.288407
vn -0.995549 0.070264 0.062811
vn -0.507895 0.833239 0.218529
vn -0.524091 0.781410 -0.338715
vn -0.996778 -0.053698 -0.059580
vn -0.507895 0.833239 0.218529
vn 0.418777 0.899240 0.126466
vn 0.398136 0.846262 -0.354016
vn -0.524091 0.781410 -0.338715
vn 0.418777 0.899240 0.126466
vn 0.962990 0.158198 -0.218227
vn 0.993324 0.115195 0.006203
vn 0.398136 0.846262 -0.354016
vn 0.962990 0.158198 -0.218227
vn 0.511780 -0.843860 -0.161189
vn 0.437017 -0.799902 0.411306
vn 0.993324 0.115195 0.006203
vn 0.437017 -0.799902 0.411306
vn -0.529181 -0.797991 0.288407
vn -0.481823 -0.489625 0.726715
vn 0.562568 -0.375387 0.736615
vn -0.529181 -0.797991 0.288407
vn -0.996778 -0.053698 -0.059580
vn -0.997698 0.034983 -0.058101
vn -0.481823 -0.489625 0.726715
vn -0.996778 -0.053698 -0.059580
vn -0.524091 0.781410 -0.338715
vn -0.448837 0.420852 -0.788308
vn -0.997698 0.034983 -0.058101
vn -0.524091 0.781410 -0.338715
vn 0.398136 0.846262 -0.354016
vn 0.558730 0.382655 -0.735796
vn -0.448837 0.420852 -0.788308
vn 0.398136 0.846262 -0.354016
vn 0.993324 0.115195 0.006203
vn 0.994892 0.072753 0.069979
vn 0.558730 0.382655 -0.735796
vn 0.993324 0.115195 0.006203
vn 0.437017 -0.799902 0.411306
vn 0.562568 -0.375387 0.736615
vn 0.994892 0.072753 0.069979
vn 0.562568 -0.375387 0.736615
vn -0.481823 -0.489625 0.726715
vn -0.477475 0.008786 0.878602
vn 0.492632 -0.081555 0.866408
vn -0.481823 -0.489625 0.726715
vn -0.997698 0.034983 -0.058101
vn -0.993206 0.113583 0.025319
vn -0.477475 0.008786 0.878602
vn -0.997698 0.034983 -0.058101
vn -0.448837 0.420852 -0.788308
vn -0.499835 0.046982 -0.864845
vn -0.993206 0.113583 0.025319
vn -0.448837 0.420852 -0.788308
vn 0.558730 0.382655 -0.735796
vn 0.509926 -0.027163 -0.859789
vn -0.499835 0.046982 -0.864845
vn 0.558730 0.382655 -0.735796
vn 0.994892 0.072753 0.069979
vn 0.998783 -0.048390 0.009500
vn 0.509926 -0.027163 -0.859789
vn 0.994892 0.072753 0.069979
vn 0.562568 -0.375387 0.736615
vn 0.492632 -0.081555 0.866408
vn 0.998783 -0.048390 0.009500
vn 0.492632 -0.081555 0.866408
vn -0.477475 0.008786 0.878602
vn -0.523103 0.038200 0.851413
vn 0.488551 -0.019696 0.872313
vn -0.477475 0.008786 0.878602
vn -0.993206 0.113583 0.025319
vn -0.999732 0.017630 -0.014977
vn -0.523103 0.038200 0.851413
vn -0.993206 0.113583 0.025319
vn -0.499835 0.046982 -0.864845
vn -0.510758 0.032193 -0.859122
vn -0.999732 0.017630 -0.014977
vn -0.499835 0.046982 -0.864845
vn 0.509926 -0.027163 -0.859789
vn 0.476010 0.002961 -0.879435
vn -0.510758 0.032193 -0.859122
vn 0.509926 -0.027163 -0.859789
vn 0.998783 -0.048390 0.009500
vn 0.997611 -0.067982 -0.012254
vn 0.476010 0.002961 -0.879435
vn 0.998783 -0.048390 0.009500
vn 0.492632 -0.081555 0.866408
vn 0.488551 -0.019696 0.872313
vn 0.997611 -0.067982 -0.012254
vn 0.488551 -0.019696 0.872313
vn -0.523103 0.038200 0.851413
vn -0.544599 -0.155906 0.824078
vn 0.455337 -0.084510 0.886299
vn -0.523103 0.038200 0.851413
vn -0.999732 0.017630 -0.014977
vn -0.991055 -0.132981 -0.011224
vn -0.544599 -0.155906 0.824078
vn -0.999732 0.017630 -0.014977
vn -0.510758 0.032193 -0.859122
vn -0.543037 -0.014330 -0.839586
vn -0.991055 -0.132981 -0.011224
vn -0.510758 0.032193 -0.859122
vn 0.476010 0.002961 -0.879435
vn 0.434002 0.204039 -0.877502
vn -0.543037 -0.014330 -0.839586
vn 0.476010 0.002961 -0.879435
vn 0.997611 -0.067982 -0.012254
vn 0.987470 0.157063 -0.015308
vn 0.434002 0.204039 -0.877502
vn 0.997611 -0.067982 -0.012254
vn 0.488551 -0.019696 0.872313
vn 0.455337 -0.084510 0.886299
vn 0.987470 0.157063 -0.015308
vn 0.455337 -0.084510 0.886299
vn -0.544599 -0.155906 0.824078
vn -0.479115 -0.222928 0.848971
vn 0.513327 0.067538 0.855531
vn -0.544599 -0.155906 0.824078
vn -0.991055 -0.132981 -0.011224
vn -0.966519 -0.256579 -0.002867
vn -0.479115 -0.222928 0.848971
vn -0.991055 -0.132981 -0.011224
vn -0.543037 -0.014330 -0.839586
vn -0.485656 -0.041651 -0.873157
vn -0.966519 -0.256579 -0.002867
vn -0.543037 -0.014330 -0.839586
vn 0.434002 0.204039 -0.877502
vn 0.494249 0.199427 -0.846136
vn -0.485656 -0.041651 -0.873157
vn 0.434002 0.204039 -0.877502
vn 0.987470 0.157063 -0.015308
vn 0.963233 0.268271 -0.014569
vn 0.494249 0.199427 -0.846136
vn 0.987470 0.157063 -0.015308
vn 0.455337 -0.084510 0.886299
vn 0.513327 0.067538 0.855531
vn 0.963233 0.268271 -0.014569
vn 0.513327 0.067538 0.855531
vn -0.479115 -0.222928 0.848971
vn -0.456518 -0.125629 0.880800
vn 0.518002 0.049116 0.853968
vn -0.479115 -0.222928 0.848971
vn -0.966519 -0.256579 -0.002867
vn -0.988880 -0.146613 0.024903
vn -0.456518 -0.125629 0.880800
vn -0.966519 -0.256579 -0.002867
vn -0.485656 -0.041651 -0.873157
vn -0.482420 0.005113 -0.875925
vn -0.988880 -0.146613 0.024903
vn -0.485656 -0.041651 -0.873157
vn 0.494249 0.199427 -0.846136
vn 0.532682 0.105367 -0.839731
vn -0.482420 0.005113 -0.875925
vn 0.494249 0.199427 -0.846136
vn 0.963233 0.268271 -0.014569
vn 0.991892 0.125295 0.021234
vn 0.532682 0.105367 -0.839731
vn 0.963233 0.268271 -0.014569
vn 0.513327 0.067538 0.855531
vn 0.518002 0.049116 0.853968
vn 0.991892 0.125295 0.021234
vn 0.518002 0.049116 0.853968
vn -0.456518 -0.125629 0.880800
vn -0.480244 0.045642 0.875947
vn 0.559353 0.031158 0.828344
vn -0.456518 -0.125629 0.880800
vn -0.988880 -0.146613 0.024903
vn -0.996289 0.072346 -0.046627
vn -0.480244 0.045642 0.875947
vn -0.988880 -0.146613 0.024903
vn -0.482420 0.005113 -0.875925
vn -0.434491 -0.041651 -0.899713
vn -0.996289 0.072346 -0.046627
vn -0.482420 0.005113 -0.875925
vn 0.532682 0.105367 -0.839731
vn 0.519162 -0.115636 -0.846817
vn -0.434491 -0.041651 -0.899713
vn 0.532682 0.105367 -0.839731
vn 0.991892 0.125295 0.021234
vn 0.998632 -0.008168 -0.051652
vn 0.519162 -0.115636 -0.846817
vn 0.991892 0.125295 0.021234
vn 0.518002 0.049116 0.853968
vn 0.559353 0.031158 0.828344
vn 0.998632 -0.008168 -0.051652
vn 0.559353 0.031158 0.828344
vn -0.480244 0.045642 0.875947
vn -0.522112 0.360262 0.773053
vn 0.522901 0.208533 0.826492
vn -0.480244 0.045642 0.875947
vn -0.996289 0.072346 -0.046627
vn -0.987520 0.122158 -0.099408
vn -0.522112 0.360262 0.773053
vn -0.996289 0.072346 -0.046627
vn -0.434491 -0.041651 -0.899713
vn -0.470577 -0.264464 -0.841793
vn -0.987520 0.122158 -0.099408
vn -0.434491 -0.041651 -0.899713
vn 0.519162 -0.115636 -0.846817
vn 0.441391 -0.357708 -0.822933
vn -0.470577 -0.264464 -0.841793
vn 0.519162 -0.115636 -0.846817
vn 0.998632 -0.008168 -0.051652
vn 0.987927 -0.141052 -0.064072
vn 0.441391 -0.357708 -0.822933
vn 0.998632 -0.008168 -0.051652
vn 0.559353 0.031158 0.828344
vn 0.522901 0.208533 0.826492
vn 0.987927 -0.141052 -0.064072
vn 0.522901 0.208533 0.826492
vn -0.522112 0.360262 0.773053
vn -0.587224 0.455435 0.669139
vn 0.491776 0.385065 0.780949
vn -0.522112 0.360262 0.773053
vn -0.987520 0.122158 -0.099408
vn -0.978503 0.007176 -0.206106
vn -0.587224 0.455435 0.669139
vn -0.987520 0.122158 -0.099408
vn -0.470577 -0.264464 -0.841793
vn -0.452474 -0.382906 -0.805388
vn -0.978503 0.007176 -0.206106
vn -0.470577 -0.264464 -0.841793
vn 0.441391 -0.357708 -0.822933
vn 0.322781 -0.478521 -0.816597
vn -0.452474 -0.382906 -0.805388
vn 0.441391 -0.357708 -0.822933
vn 0.987927 -0.141052 -0.064072
vn 0.975978 -0.180077 -0.122632
vn 0.322781 -0.478521 -0.816597
vn 0.987927 -0.141052 -0.064072
vn 0.522901 0.208533 0.826492
vn 0.491776 0.385065 0.780949
vn 0.975978 -0.180077 -0.122632
s off
g cond_low:Condition1
usemtl cond_low:initialShadingGroup
f 1/1/1 2/19/2 4/23/3 3/4/4
f 3/5/5 4/24/6 6/21/7 5/7/8
f 5/8/9 6/22/10 8/17/11 7/10/12
f 7/11/13 8/18/14 2/2/15 1/15/16
f 2/20/17 8/9/18 6/6/19 4/3/20
f 7/16/21 1/12/22 3/13/23 5/14/24
f 9/25/25 10/26/26 16/27/27 15/28/28
f 10/29/29 11/30/30 17/31/31 16/32/32
f 11/30/33 12/33/34 18/34/35 17/31/36
f 12/33/37 13/35/38 19/36/39 18/34/40
f 13/35/41 14/37/42 20/38/43 19/36/44
f 14/37/45 9/25/46 15/28/47 20/38/48
f 15/28/49 16/27/50 22/39/51 21/40/52
f 16/32/53 17/31/54 23/41/55 22/42/56
f 17/31/57 18/34/58 24/43/59 23/41/60
f 18/34/61 19/36/62 25/44/63 24/43/64
f 19/36/65 20/38/66 26/45/67 25/44/68
f 20/38/69 15/28/70 21/40/71 26/45/72
f 21/40/73 22/39/74 28/46/75 27/47/76
f 22/42/77 23/41/78 29/48/79 28/49/80
f 23/41/81 24/43/82 30/50/83 29/48/84
f 24/43/85 25/44/86 31/51/87 30/50/88
f 25/44/89 26/45/90 32/52/91 31/51/92
f 26/45/93 21/40/94 27/47/95 32/52/96
f 27/47/97 28/46/98 34/53/99 33/54/100
f 28/49/101 29/48/102 35/55/103 34/56/104
f 29/48/105 30/50/106 36/57/107 35/55/108
f 30/50/109 31/51/110 37/58/111 36/57/112
f 31/51/113 32/52/114 38/59/115 37/58/116
f 32/52/117 27/47/118 33/54/119 38/59/120
f 33/54/121 34/53/122 40/60/123 39/61/124
f 34/56/125 35/55/126 41/62/127 40/63/128
f 35/55/129 36/57/130 42/64/131 41/62/132
f 36/57/133 37/58/134 43/65/135 42/64/136
f 37/58/137 38/59/138 44/66/139 43/65/140
f 38/59/141 33/54/142 39/61/143 44/66/144
f 39/61/145 40/60/146 46/67/147 45/68/148
f 40/63/149 41/62/150 47/69/151 46/70/152
f 41/62/153 42/64/154 48/71/155 47/69/156
f 42/64/157 43/65/158 49/72/159 48/71/160
f 43/65/161 44/66/162 50/73/163 49/72/164
f 44/66/165 39/61/166 45/68/167 50/73/168
f 45/68/169 46/67/170 52/74/171 51/75/172
f 46/70/173 47/69/174 53/76/175 52/77/176
f 47/69/177 48/71/178 54/78/179 53/76/180
f 48/71/181 49/72/182 55/79/183 54/78/184
f 49/72/185 50/73/186 56/80/187 55/79/188
f 50/73/189 45/68/190 51/75/191 56/80/192
f 51/75/193 52/74/194 58/81/195 57/82/196
f 52/77/197 53/76/198 59/83/199 58/84/200
f 53/76/201 54/78/202 60/85/203 59/83/204
f 54/78/205 55/79/206 61/86/207 60/85/208
f 55/79/209 56/80/210 62/87/211 61/86/212
f 56/80/213 51/75/214 57/82/215 62/87/216
f 57/82/217 58/81/218 64/88/219 63/89/220
f 58/84/221 59/83/222 65/90/223 64/91/224
f 59/83/225 60/85/226 66/92/227 65/90/228
f 60/85/229 61/86/230 67/93/231 66/92/232
f 61/86/233 62/87/234 68/94/235 67/93/236
f 62/87/237 57/82/238 63/89/239 68/94/240
f 63/89/241 64/88/242 70/95/243 69/96/244
f 64/91/245 65/90/246 71/97/247 70/98/248
f 65/90/249 66/92/250 72/99/251 71/97/252
f 66/92/253 67/93/254 73/100/255 72/99/256
f 67/93/257 68/94/258 74/101/259 73/100/260
f 68/94/261 63/89/262 69/96/263 74/101/264
f 69/96/265 70/95/266 76/102/267 75/103/268
f 70/98/269 71/97/270 77/104/271 76/105/272
f 71/97/273 72/99/274 78/106/275 77/104/276
f 72/99/277 73/100/278 79/107/279 78/106/280
f 73/100/281 74/101/282 80/108/283 79/107/284
f 74/101/285 69/96/286 75/103/287 80/108/288
f 75/103/289 76/102/290 82/109/291 81/110/292
f 76/105/293 77/104/294 83/111/295 82/112/296
f 77/104/297 78/106/298 84/113/299 83/111/300
f 78/106/301 79/107/302 85/114/303 84/113/304
f 79/107/305 80/108/306 86/115/307 85/114/308
f 80/108/309 75/103/310 81/110/311 86/115/312
